# xmcd
#
# Track frame offsets:
#	183
#	16763
#	33598
#	51880
#	67223
#	86450
#	105875
#	124278
#	141150
#	161810
#	178780
#	196973
#	215328
#	233240
#	252843
#	267350
#	282223
#	300358
#	320318
#
# Disc length: 4432 seconds
#
# Revision: 1
# Processed by: cddbd v1.4PL0 Copyright (c) Steve Scherf et al.
# Submitted via: gmmusic 1.1.10
#
DISCID=0b114e13
DTITLE=Various Artist - Blue Boogie - Boogie Woogie, Stride And The Piano Blues
DYEAR=1992
DGENRE=Blues
TTITLE0=Albert Ammons - Boogie Woogie Stomp
TTITLE1=Albert Ammons - Boogie Woogie Blues
TTITLE2=Albert Ammons - Chicago In Mind
TTITLE3=Albert Ammons - Bass Goin' Crazy
TTITLE4=Meade Lux Lewis - The Blues Part 1
TTITLE5=Meade Lux Lewis - Honky Tonk Train Blues
TTITLE6=Meade Lux Lewis - Variations On A Theme Part 1: 19 Ways Of Playing A C
TTITLE6=horus
TTITLE7=Meade Lux Lewis - Bass On Top
TTITLE8=Meade Lux Lewis Albert Ammons - Twos And Fews
TTITLE9=Pete Johnson - Vine Street Blues
TTITLE10=Pete Johnson - Barrelhouse Breakdown
TTITLE11=James P. Johnson - Mule Walk (Stomp)
TTITLE12=James P. Johnson - Blue Note Boogie
TTITLE13=James P. Johnson - Call Of The Blues
TTITLE14=Sammy Benskin - The World Is Waiting For The Sunrise
TTITLE15=Art Hodes - Jug Head Boogie
TTITLE16=Art Hodes - Funny Feathers
TTITLE17=Earl Hines - The Father's Gateway
TTITLE18=Art Tatum - Aunt Hagar's Blues
EXTD=
EXTT0=
EXTT1=
EXTT2=
EXTT3=
EXTT4=
EXTT5=
EXTT6=
EXTT7=
EXTT8=
EXTT9=
EXTT10=
EXTT11=
EXTT12=
EXTT13=
EXTT14=
EXTT15=
EXTT16=
EXTT17=
EXTT18=
PLAYORDER=
